<svg width="24" height="25" viewBox="0 0 24 25" fill="none" xmlns="http://www.w3.org/2000/svg">
<g clip-path="url(#clip0_448_13074)">
<path d="M10 16.4997H14C14.55 16.4997 15 16.0497 15 15.4997V10.4997H16.59C17.48 10.4997 17.93 9.41973 17.3 8.78973L12.71 4.19973C12.32 3.80973 11.69 3.80973 11.3 4.19973L6.71 8.78973C6.08 9.41973 6.52 10.4997 7.41 10.4997H9V15.4997C9 16.0497 9.45 16.4997 10 16.4997ZM6 18.4997H18C18.55 18.4997 19 18.9497 19 19.4997C19 20.0497 18.55 20.4997 18 20.4997H6C5.45 20.4997 5 20.0497 5 19.4997C5 18.9497 5.45 18.4997 6 18.4997Z" fill="#48ABE9"/>
</g>
<defs>
<clipPath id="clip0_448_13074">
<rect width="24" height="24" fill="white" transform="translate(0 0.5)"/>
</clipPath>
</defs>
</svg>
