<svg width="25" height="24" viewBox="0 0 25 24" fill="none" xmlns="http://www.w3.org/2000/svg">
<rect x="0.333313" width="24" height="24" rx="12" fill="#A1ABC5"/>
<g clip-path="url(#clip0_50_943)">
<path d="M16.5333 7.80714C16.2733 7.54714 15.8533 7.54714 15.5933 7.80714L12.3333 11.0605L9.07329 7.80047C8.81329 7.54047 8.39329 7.54047 8.13329 7.80047C7.87329 8.06047 7.87329 8.48047 8.13329 8.74047L11.3933 12.0005L8.13329 15.2605C7.87329 15.5205 7.87329 15.9405 8.13329 16.2005C8.39329 16.4605 8.81329 16.4605 9.07329 16.2005L12.3333 12.9405L15.5933 16.2005C15.8533 16.4605 16.2733 16.4605 16.5333 16.2005C16.7933 15.9405 16.7933 15.5205 16.5333 15.2605L13.2733 12.0005L16.5333 8.74047C16.7866 8.48714 16.7866 8.06047 16.5333 7.80714Z" fill="white"/>
</g>
<defs>
<clipPath id="clip0_50_943">
<rect width="16" height="16" fill="white" transform="translate(4.33331 4)"/>
</clipPath>
</defs>
</svg>
