<svg width="281" height="280" viewBox="0 0 281 280" fill="none" xmlns="http://www.w3.org/2000/svg">
<path d="M53.1631 127.03C53.1631 127.03 91.934 125.477 100.312 61.7458C107.753 5.14647 173.131 30.9084 192.029 53.4703C216.51 82.6972 203.46 132.974 235.129 139.325C266.798 145.677 246.118 216.293 198.046 209.533C138.246 201.125 152.714 236.069 134.762 250.86C121.879 261.475 69.0514 251.256 67.2908 212.723C65.8091 180.297 52.1314 180.4 42.4366 176.723C28.4543 171.421 19.644 133.017 53.1631 127.03Z" fill="#E7EDFC"/>
<path d="M184.962 197.807L146.871 160.167L139.328 167.801L177.42 205.44L184.962 197.807Z" fill="#777E91"/>
<path d="M199.513 207.92L169.878 178.637C169.713 178.474 169.447 178.476 169.284 178.641L158.067 189.992C157.904 190.157 157.906 190.423 158.071 190.586L187.706 219.869C187.871 220.032 188.137 220.031 188.3 219.866L199.517 208.514C199.68 208.349 199.678 208.083 199.513 207.92Z" fill="#A1ABC5"/>
<path d="M113.111 179.097C139.316 179.097 160.56 157.853 160.56 131.648C160.56 105.442 139.316 84.1982 113.111 84.1982C86.9051 84.1982 65.6612 105.442 65.6612 131.648C65.6612 157.853 86.9051 179.097 113.111 179.097Z" fill="#A1ABC5"/>
<path d="M113.111 171.355C135.04 171.355 152.818 153.578 152.818 131.648C152.818 109.718 135.04 91.9409 113.111 91.9409C91.181 91.9409 73.4035 109.718 73.4035 131.648C73.4035 153.578 91.181 171.355 113.111 171.355Z" fill="#E7EDFC"/>
<path d="M193.33 88.7531C182.2 85.1454 170.171 91.247 166.549 102.423C162.942 113.553 169.043 125.581 180.219 129.203C191.395 132.825 203.392 126.664 207 115.533C210.608 104.403 204.46 92.3606 193.33 88.7531ZM189.971 99.1145C191.217 99.5183 192.315 100.283 193.125 101.312C193.936 102.34 194.423 103.587 194.524 104.892C194.625 106.198 194.337 107.504 193.695 108.646C193.052 109.787 192.086 110.712 190.917 111.303C189.748 111.894 188.431 112.125 187.131 111.966C185.831 111.807 184.607 111.266 183.615 110.411C182.623 109.556 181.908 108.425 181.56 107.163C181.211 105.9 181.245 104.563 181.658 103.32C182.773 99.8813 186.532 97.9999 189.971 99.1145ZM181.568 125.041C177.87 123.848 174.702 121.407 172.606 118.136C176.528 115.907 180.63 115.286 184.34 116.489C188.05 117.692 191.067 120.569 192.877 124.706C189.26 126.126 185.262 126.244 181.568 125.041Z" fill="#48ABE9"/>
<path d="M100.691 190.176C98.7578 191.163 97.1606 192.701 96.1014 194.595C95.0423 196.49 94.5687 198.656 94.7405 200.82C94.9124 202.983 95.722 205.048 97.067 206.751C98.412 208.455 100.232 209.721 102.297 210.39C104.361 211.06 106.578 211.102 108.667 210.511C110.756 209.92 112.622 208.723 114.03 207.072C115.439 205.42 116.326 203.388 116.58 201.233C116.833 199.077 116.442 196.895 115.455 194.961C114.129 192.371 111.83 190.413 109.063 189.516C106.295 188.619 103.284 188.856 100.691 190.176ZM103.247 195.184C103.849 194.876 104.529 194.755 105.2 194.834C105.872 194.914 106.504 195.191 107.018 195.631C107.532 196.07 107.903 196.652 108.085 197.303C108.267 197.954 108.252 198.645 108.041 199.287C107.831 199.93 107.434 200.495 106.901 200.911C106.369 201.328 105.724 201.577 105.05 201.627C104.376 201.676 103.702 201.525 103.114 201.191C102.526 200.857 102.051 200.357 101.748 199.752C101.346 198.947 101.279 198.015 101.559 197.16C101.84 196.305 102.446 195.594 103.247 195.183V195.184ZM109.643 207.714C107.858 208.628 105.811 208.894 103.852 208.465C104.47 206.22 105.74 204.496 107.534 203.581C109.327 202.665 111.478 202.615 113.648 203.464C112.847 205.302 111.43 206.804 109.643 207.713V207.714Z" fill="#48ABE9"/>
</svg>
