<svg width="92" height="57" viewBox="0 0 92 57" fill="none" xmlns="http://www.w3.org/2000/svg">
<path d="M35.2497 14.9711C34.0987 14.9711 33.3236 14.1215 33.3236 12.8508C33.3236 11.5841 34.0987 10.7306 35.2497 10.7306C36.4007 10.7306 37.1758 11.5802 37.1758 12.8508C37.1798 14.1215 36.4046 14.9711 35.2497 14.9711ZM35.2497 9.01967C32.9713 9.01967 31.3192 10.634 31.3192 12.8547C31.3192 15.0754 32.9713 16.6897 35.2497 16.6897C37.5282 16.6897 39.1803 15.0754 39.1803 12.8547C39.1842 10.6302 37.5282 9.01967 35.2497 9.01967ZM28.109 12.8972C28.0541 12.8856 28.0502 12.8122 28.105 12.7968C28.5044 12.6886 28.8489 12.4415 29.119 12.117L31.5854 9.13553H29.303L26.5469 12.4724V6.02271H24.5425V16.57H26.5469V13.1598L28.9233 15.898C29.3304 16.3615 29.7689 16.57 30.4109 16.57H31.8633L29.1581 13.4881C28.8841 13.1753 28.5122 12.9783 28.109 12.8972ZM48.9753 9.01967C47.7578 9.01967 46.9631 9.66464 46.5638 10.3096C46.184 9.46767 45.4167 9.01967 44.2775 9.01967C43.3301 9.01967 42.6332 9.43291 42.3631 10.0161C42.3239 10.101 42.2535 10.1204 42.2261 9.99677C42.1047 9.48312 41.6271 9.13553 41.0986 9.13553H40.253V16.5739H42.2574V12.7968C42.2574 11.5068 42.7976 10.7074 43.7333 10.7074C44.528 10.7074 44.9547 11.1979 44.9547 12.0591V16.5739H46.9592V12.7813C46.9592 11.503 47.4916 10.7074 48.4194 10.7074C49.222 10.7074 49.6722 11.2133 49.6722 12.0591V16.5739H51.6766V11.5493C51.6727 10.0586 50.5726 9.01967 48.9753 9.01967ZM23.1096 7.16588C23.1096 6.53636 22.589 6.02271 21.9508 6.02271H21.1052V15.2067C21.1052 16.2572 21.7825 16.6859 22.5381 16.6859C22.8591 16.6859 23.1879 16.6125 23.4737 16.4812C23.1723 16.0409 23.1096 15.4153 23.1096 14.8514V7.16588ZM11.5176 8.33608C11.5176 7.23153 10.582 6.36643 9.51321 6.36643H7.6184C6.98028 6.36643 6.45959 6.88008 6.45959 7.5096V8.41333H9.46623V15.2067C9.46623 16.2572 10.1631 16.6859 10.9187 16.6859C11.2397 16.6859 11.5881 16.6125 11.8778 16.4812C11.5764 16.0409 11.5137 15.4153 11.5137 14.8514V8.33608H11.5176ZM14.5243 7.97305V6.37029H10.8834C10.8286 6.37029 10.809 6.43981 10.856 6.46684C11.4119 6.77195 11.7643 7.33581 11.8739 7.98077C11.9209 8.25498 12.1166 8.42105 12.3985 8.42105H14.0662C14.3246 8.41719 14.5243 8.22022 14.5243 7.97305ZM56.0809 12.0282C55.0865 11.7695 54.7263 11.557 54.7263 11.2249C54.7263 10.7846 55.0943 10.5375 55.8616 10.5375C56.7229 10.5375 57.5998 10.831 58.1362 11.2172V9.61057C57.5764 9.25139 56.672 9.02739 55.7951 9.02739C53.9473 9.02739 52.808 9.98519 52.808 11.3022C52.808 12.6191 53.9473 13.183 55.1648 13.5151C56.1787 13.8086 56.6798 13.9708 56.6798 14.415C56.6798 14.8939 56.2884 15.1719 55.4388 15.1719C54.3427 15.1719 53.4814 14.7471 52.8628 14.2142V15.9559C53.5323 16.4194 54.464 16.7013 55.521 16.7013C57.4667 16.7013 58.6021 15.7822 58.6021 14.3764C58.6021 12.847 57.2867 12.3333 56.0809 12.0282ZM14.7983 12.0591C14.9549 11.1438 15.6557 10.4988 16.5326 10.4988C17.3626 10.4988 17.9929 11.0395 18.079 12.0591H14.7983ZM16.5444 9.01967C14.489 9.01967 12.8056 10.5375 12.8056 12.8856C12.8056 15.1256 14.3246 16.6897 16.8732 16.6897C17.8324 16.6897 18.721 16.4348 19.4884 15.9714V14.2837C18.7484 14.7896 17.9263 15.0831 17.0924 15.0831C15.8475 15.0831 14.9901 14.5656 14.7278 13.4224H19.9542C19.9816 13.1946 20.009 12.9474 20.009 12.7273C20.013 10.298 18.4196 9.01967 16.5444 9.01967ZM61.2133 12.0591C61.3699 11.1438 62.0707 10.4988 62.9476 10.4988C63.7775 10.4988 64.4078 11.0395 64.494 12.0591H61.2133ZM62.9632 9.01967C60.9079 9.01967 59.2245 10.5375 59.2245 12.8856C59.2245 15.1256 60.7435 16.6897 63.2921 16.6897C64.2512 16.6897 65.1399 16.4348 65.9073 15.9714V14.2837C65.1673 14.7896 64.3452 15.0831 63.5113 15.0831C62.2664 15.0831 61.409 14.5656 61.1467 13.4224H66.3731C66.4005 13.1946 66.4279 12.9474 66.4279 12.7273C66.4318 10.298 64.8385 9.01967 62.9632 9.01967ZM69.5285 14.8553V7.16588C69.5285 6.53636 69.0078 6.02271 68.3697 6.02271H67.5241V15.2067C67.5241 16.2572 68.2014 16.6859 68.957 16.6859C69.278 16.6859 69.6068 16.6125 69.8926 16.4812C69.5912 16.0409 69.5285 15.4153 69.5285 14.8553Z" fill="#FF0025"/>
<path d="M17.5113 24.5877C10.6054 24.5877 6.46344 29.2415 6.46344 36.8845C6.46344 38.2053 6.59263 39.4373 6.83927 40.5728C6.96063 41.0826 7.3208 42.164 8.43263 42.4768C9.99859 42.9209 12.6411 41.2062 12.6411 41.2062C12.1909 40.0437 11.956 38.5993 11.956 36.8845C11.956 31.8677 13.9096 29.1758 17.4486 29.1758C21.0542 29.1758 23.0743 31.9681 23.0743 36.8845C23.0743 41.8009 21.0542 44.5932 17.4486 44.5932C15.5538 44.5932 14.121 43.8053 13.1892 42.3146L9.79501 46.2732C11.6859 48.154 14.3245 49.1813 17.5504 49.1813C24.3897 49.1813 28.5669 44.4966 28.5669 36.8845C28.563 29.2724 24.3858 24.5877 17.5113 24.5877ZM31.3857 48.8453V31.6978C31.9259 31.4313 32.7676 31.2652 33.5741 31.2652C35.4258 31.2652 36.6394 32.362 36.6394 34.1579V34.5904C37.5164 32.6285 39.4034 31.3347 41.3569 31.3347C43.1068 31.3347 44.1874 32.2655 44.1874 33.8258C44.1874 34.7565 43.8154 35.6525 43.1108 36.452C42.4687 35.919 41.627 35.6525 40.5504 35.6525C38.0919 35.6525 36.6747 37.1162 36.6747 39.6073V48.8453H31.3857ZM63.4447 40.175C63.4447 45.5587 60.8844 49.1813 56.3705 49.1813C54.0451 49.1813 52.1933 48.3162 51.1833 46.3582C51.0149 48.1849 50.0049 48.9496 48.1531 48.9496C47.3428 48.9496 46.5011 48.7835 45.9647 48.5171V24.356C46.505 24.0895 47.378 23.9234 48.1531 23.9234C50.1732 23.9234 51.2537 24.9855 51.2537 26.9474V34.49C52.1972 32.0647 54.049 31.0682 56.3744 31.0682C60.8178 31.0682 63.4447 34.7218 63.4447 40.175ZM58.0891 40.1402C58.0891 36.8845 56.6759 35.0539 54.554 35.0539C52.6357 35.0539 51.2537 36.5176 51.2537 38.3444V42.2644C51.2537 43.8594 52.7375 45.2227 54.4874 45.2227C56.7424 45.2227 58.0891 43.3303 58.0891 40.1402ZM66.3104 26.2831L68.6672 23.823L71.161 25.8506C71.4624 26.1171 71.5642 26.4492 71.5642 26.6809C71.5642 27.0131 71.3959 27.3143 71.161 27.5769L68.8042 30.0371L66.3104 28.0095C65.9737 27.743 65.9072 27.4109 65.9072 27.1791C65.9033 26.8122 66.0716 26.5496 66.3104 26.2831ZM66.1068 31.4004H71.3959V48.5171C70.8556 48.7835 69.9826 48.9496 69.2074 48.9496C67.1874 48.9496 66.1068 47.8875 66.1068 45.9256V31.4004ZM76.0468 31.4004V26.9474C76.587 26.6809 77.46 26.5149 78.2352 26.5149C80.2239 26.5149 81.3005 27.5769 81.3005 29.5389V31.4004H85.7792V35.1543H81.3319V43.4307C81.3319 44.5623 81.97 44.991 82.9839 44.991C83.7943 44.991 84.6674 44.6241 85.1724 44.1259C85.509 44.6898 86.1511 45.354 86.1511 46.2848C86.1511 48.0807 84.5695 49.0771 81.3319 49.0771C77.965 49.0771 76.0781 47.2155 76.0781 43.7281V35.1543C73.7213 35.1195 73.0127 34.2583 73.0127 31.4004H76.0468Z" fill="#FF0025"/>
</svg>
